<svg width="21" height="17" viewBox="0 0 21 17" fill="none" xmlns="http://www.w3.org/2000/svg">
<path d="M21 5.32031C20.6484 5.70703 20.25 6.04687 19.8281 6.33984C17.8711 7.66406 15.9023 9 13.9922 10.3828C13.0078 11.1094 11.7891 12 10.5117 12H10.5H10.4883C9.21094 12 7.99219 11.1094 7.00781 10.3828C5.09766 8.98828 3.12891 7.66406 1.18359 6.33984C0.75 6.04687 0.351563 5.70703 0 5.32031V14.625C0 15.6562 0.84375 16.5 1.875 16.5H19.125C20.1563 16.5 21 15.6562 21 14.625V5.32031ZM21 1.875C21 0.843749 20.1445 -3.57628e-07 19.125 -3.57628e-07H1.875C0.621094 -3.57628e-07 0 0.984375 0 2.13281C0 3.19922 1.18359 4.52344 2.01563 5.08594C3.83203 6.35156 5.67188 7.61719 7.48828 8.89453C8.25 9.42188 9.53906 10.5 10.4883 10.5H10.5H10.5117C11.4609 10.5 12.75 9.42188 13.5117 8.89453C15.3281 7.61719 17.168 6.35156 18.9961 5.08594C20.0273 4.37109 21 3.1875 21 1.875Z" fill="#189FF9"/>
</svg>
