<svg width="18" height="19" viewBox="0 0 18 19" fill="none" xmlns="http://www.w3.org/2000/svg">
<path d="M10.5 5.375C10.5 5.16406 10.3359 5 10.125 5H9.375C9.16406 5 9 5.16406 9 5.375V9.5H6.375C6.16406 9.5 6 9.66406 6 9.875V10.625C6 10.8359 6.16406 11 6.375 11H10.125C10.3359 11 10.5 10.8359 10.5 10.625V5.375ZM15.375 9.5C15.375 13.0156 12.5156 15.875 9 15.875C5.48438 15.875 2.625 13.0156 2.625 9.5C2.625 5.98437 5.48438 3.125 9 3.125C12.5156 3.125 15.375 5.98437 15.375 9.5ZM18 9.5C18 4.53125 13.9688 0.499999 9 0.499999C4.03125 0.499999 0 4.53125 0 9.5C0 14.4687 4.03125 18.5 9 18.5C13.9688 18.5 18 14.4687 18 9.5Z" fill="#189FF9"/>
</svg>
