<svg width="12" height="19" viewBox="0 0 12 19" fill="none" xmlns="http://www.w3.org/2000/svg">
<path d="M9 6.5C9 8.15234 7.65234 9.5 6 9.5C4.34766 9.5 3 8.15234 3 6.5C3 4.84766 4.34766 3.5 6 3.5C7.65234 3.5 9 4.84766 9 6.5ZM12 6.5C12 3.18359 9.31641 0.499999 6 0.499999C2.68359 0.499999 0 3.18359 0 6.5C0 7.21484 0.0820312 7.95312 0.386719 8.59766L4.66406 17.668C4.89844 18.1836 5.4375 18.5 6 18.5C6.5625 18.5 7.10156 18.1836 7.34766 17.668L11.6133 8.59766C11.918 7.95312 12 7.21484 12 6.5Z" fill="#189FF9"/>
</svg>
