<svg width="17" height="17" viewBox="0 0 17 17" fill="none" xmlns="http://www.w3.org/2000/svg">
<path d="M16.5 13.5312C16.5 13.4492 16.5 13.3672 16.4648 13.2852C16.3828 13.0391 15.8086 12.7812 15.5742 12.6641C14.9063 12.2891 14.2266 11.9258 13.5703 11.5391C13.2656 11.3516 12.8906 11 12.5273 11C11.8125 11 10.7695 13.1211 10.1367 13.1211C9.82031 13.1211 9.41016 12.8281 9.12891 12.6641C6.99609 11.4805 5.51953 10.0039 4.33594 7.87109C4.17188 7.58984 3.87891 7.17969 3.87891 6.86328C3.87891 6.23047 6 5.1875 6 4.47266C6 4.10937 5.64844 3.73437 5.46094 3.42969C5.07422 2.77344 4.71094 2.09375 4.33594 1.42578C4.21875 1.19141 3.96094 0.617187 3.71484 0.535156C3.63281 0.499999 3.55078 0.499999 3.46875 0.499999C3.04688 0.499999 2.22656 0.6875 1.83984 0.863281C1.26563 1.10937 0.890625 1.76562 0.597656 2.29297C0.222656 2.98437 0 3.6875 0 4.47266C0 5.5625 0.445313 6.54687 0.808594 7.54297C1.06641 8.25781 1.38281 8.94922 1.78125 9.59375C3.01172 11.5859 5.41406 13.9883 7.40625 15.2187C8.05078 15.6172 8.74219 15.9336 9.45703 16.1914C10.4531 16.5547 11.4375 17 12.5273 17C13.3125 17 14.0156 16.7773 14.707 16.4023C15.2344 16.1094 15.8906 15.7344 16.1367 15.1602C16.3125 14.7734 16.5 13.9531 16.5 13.5312Z" fill="#189FF9"/>
</svg>
