<svg width="26" height="17" viewBox="0 0 26 17" fill="none" xmlns="http://www.w3.org/2000/svg">
<path d="M10.5223 11.5357V4.79911L17.0045 8.1875L10.5223 11.5357ZM13 -0.00892878C7.95089 -0.00892878 4.60268 0.232142 4.60268 0.232142C4.13393 0.285714 3.10268 0.285714 2.19196 1.25C2.19196 1.25 1.45536 1.97321 1.24107 3.63393C0.986607 5.57589 1 7.51786 1 7.51786V9.33929C1 9.33929 0.986607 11.2812 1.24107 13.2232C1.45536 14.8705 2.19196 15.6071 2.19196 15.6071C3.10268 16.558 4.30804 16.5312 4.84375 16.625C4.84375 16.625 6.75893 16.8125 13 16.8661C18.0491 16.8661 21.3973 16.6116 21.3973 16.6116C21.8661 16.558 22.8973 16.558 23.808 15.6071C23.808 15.6071 24.5446 14.8705 24.7589 13.2232C25.0134 11.2812 25 9.33929 25 9.33929V7.51786C25 7.51786 25.0134 5.57589 24.7589 3.63393C24.5446 1.97321 23.808 1.25 23.808 1.25C22.8973 0.285714 21.8661 0.285714 21.3973 0.232142C21.3973 0.232142 18.0491 -0.00892878 13 -0.00892878Z" fill="white"/>
</svg>
